<?xml version="1.0" encoding="utf-8"?>
<!-- Generator: Adobe Illustrator 22.1.0, SVG Export Plug-In . SVG Version: 6.00 Build 0)  -->
<svg version="1.1" id="Layer_1" xmlns="http://www.w3.org/2000/svg" xmlns:xlink="http://www.w3.org/1999/xlink" x="0px" y="0px"
	 viewBox="0 0 64 64" style="enable-background:new 0 0 64 64;" xml:space="preserve">
<style type="text/css">
	.st0{fill:none;stroke:#212529;stroke-width:2;stroke-linecap:round;stroke-linejoin:round;stroke-miterlimit:10;}
	.st1{fill:none;stroke:#212529;stroke-linecap:round;stroke-linejoin:round;stroke-miterlimit:10;}
</style>
<g>
	<path class="st0" d="M55,41.3c0,1.1-0.9,2-2,2H11c-1.1,0-2-0.9-2-2v-26c0-1.1,0.9-2,2-2h42c1.1,0,2,0.9,2,2V41.3z"/>
	<rect x="12" y="16.3" class="st1" width="40" height="24"/>
	<path class="st0" d="M59,49.7c0,0.6-0.4,1-1,1H6c-0.6,0-1-0.4-1-1v-2c0-0.6,0.4-1,1-1h52c0.6,0,1,0.4,1,1V49.7z"/>
</g>
</svg>
