<?xml version="1.0" encoding="utf-8"?>
<!-- Generator: Adobe Illustrator 22.1.0, SVG Export Plug-In . SVG Version: 6.00 Build 0)  -->
<svg version="1.1" id="Layer_1" xmlns="http://www.w3.org/2000/svg" xmlns:xlink="http://www.w3.org/1999/xlink" x="0px" y="0px"
	 viewBox="0 0 50 50" style="enable-background:new 0 0 50 50;" xml:space="preserve">
<style type="text/css">
	.st0{fill:#212529;}
</style>
<g id="Layer_1_1_">
	<path class="st0" d="M32.9,21.8c1.8-1.2,3-3.2,3-5.5c0-3.6-3-6.6-6.6-6.6c-0.6,0-1.2,0.1-1.9,0.3c-1.3-1.5-3.3-2.5-5.5-2.5
		c-4,0-7.3,3.3-7.3,7.3c0,2.5,1.3,4.7,3.2,6c-4.3,0.9-7.6,4.7-7.6,9.3v12.4h23.4v-2.9h5.8v-8.8C39.6,26.6,36.8,23,32.9,21.8z
		 M28.5,11.2c0.3-0.1,0.6-0.1,0.9-0.1c2.8,0,5.1,2.3,5.1,5.1s-2.3,5.1-5.1,5.1c-1,0-2-0.3-2.8-0.8c0,0,0,0,0,0
		c0.6-0.5,1.2-1.1,1.6-1.8c0,0,0-0.1,0-0.1c0.1-0.2,0.2-0.4,0.3-0.6c0,0,0-0.1,0.1-0.1c0.1-0.2,0.2-0.4,0.3-0.6c0,0,0-0.1,0.1-0.1
		c0.1-0.2,0.1-0.4,0.2-0.6c0-0.1,0-0.1,0-0.2c0-0.2,0.1-0.4,0.1-0.6c0-0.1,0-0.1,0-0.2c0-0.3,0-0.5,0-0.8c0-0.3,0-0.6-0.1-0.9
		c0-0.1,0-0.2,0-0.3c0-0.2-0.1-0.4-0.1-0.6c0-0.1,0-0.2-0.1-0.3c-0.1-0.2-0.1-0.4-0.2-0.6c0-0.1,0-0.1-0.1-0.2
		C28.7,11.7,28.6,11.5,28.5,11.2C28.5,11.2,28.5,11.2,28.5,11.2z M16.2,14.8c0-3.2,2.6-5.8,5.9-5.8c1.8,0,3.4,0.8,4.5,2.1l0,0.1
		c0,0,0.1,0.1,0.1,0.1c0.4,0.5,0.7,1,0.9,1.6c0,0,0,0.1,0,0.1c0.1,0.3,0.2,0.5,0.2,0.8c0,0.1,0,0.1,0,0.2c0,0.3,0.1,0.6,0.1,0.9
		c0,0.2,0,0.5,0,0.7c0,0.1,0,0.1,0,0.2c0,0.2-0.1,0.4-0.1,0.6c0,0,0,0.1,0,0.1c-0.1,0.5-0.3,0.9-0.6,1.3c0,0,0,0,0,0
		c-0.1,0.2-0.2,0.4-0.4,0.6c0,0,0,0,0,0.1c-0.3,0.4-0.6,0.7-1,1c0,0,0,0-0.1,0c-0.2,0.1-0.4,0.3-0.6,0.4c0,0,0,0-0.1,0l-0.1,0.1
		c-0.8,0.4-1.8,0.7-2.8,0.7C18.8,20.6,16.2,18,16.2,14.8z M32.3,41.1H11.8v-11c0-4.4,3.6-8,8-8h4.4c1.1,0,2.1,0.2,3.1,0.6l0.1,0.1
		c0.1,0,0.2,0.1,0.2,0.1c0.2,0.1,0.4,0.2,0.6,0.3c0.1,0.1,0.2,0.1,0.3,0.2c0.1,0.1,0.2,0.1,0.3,0.2c0.1,0.1,0.2,0.1,0.3,0.2
		c0.1,0.1,0.2,0.1,0.2,0.2c0.1,0.1,0.2,0.2,0.4,0.3c0.1,0.1,0.2,0.2,0.3,0.3c0.1,0.1,0.2,0.2,0.3,0.3c0.1,0.1,0.1,0.2,0.2,0.2
		c0.1,0.1,0.1,0.2,0.2,0.3c0.1,0.1,0.1,0.2,0.2,0.3c0.1,0.1,0.2,0.3,0.2,0.4c0.1,0.1,0.2,0.3,0.2,0.4c0.1,0.1,0.1,0.2,0.2,0.3
		c0,0.1,0.1,0.2,0.1,0.3c0,0.1,0.1,0.2,0.1,0.3c0,0.1,0.1,0.2,0.1,0.3c0.1,0.2,0.1,0.4,0.2,0.6c0,0.1,0,0.2,0,0.2
		c0,0.2,0.1,0.3,0.1,0.5c0,0.1,0,0.2,0,0.2c0,0.2,0,0.5,0,0.7v9.5V41.1z M38.2,38.2h-4.4v-8c0-0.3,0-0.7-0.1-1c0-0.1,0-0.2,0-0.2
		c0-0.3-0.1-0.5-0.1-0.8c0-0.1,0-0.2-0.1-0.3c-0.1-0.2-0.1-0.5-0.2-0.7c0-0.1-0.1-0.2-0.1-0.2c-0.1-0.2-0.2-0.5-0.3-0.7
		c0-0.1-0.1-0.2-0.1-0.2c-0.1-0.2-0.2-0.4-0.3-0.6c0-0.1-0.1-0.2-0.1-0.2c-0.1-0.2-0.3-0.4-0.4-0.6c-0.1-0.1-0.1-0.1-0.2-0.2
		c-0.2-0.2-0.3-0.4-0.5-0.6c-0.1-0.1-0.1-0.1-0.2-0.2c-0.2-0.2-0.5-0.5-0.7-0.7c4.3,0.1,7.8,3.7,7.8,8V38.2z"/>
</g>
</svg>
