<?xml version="1.0" encoding="utf-8"?>
<!-- Generator: Adobe Illustrator 22.1.0, SVG Export Plug-In . SVG Version: 6.00 Build 0)  -->
<svg version="1.1" id="Layer_2_1_" xmlns="http://www.w3.org/2000/svg" xmlns:xlink="http://www.w3.org/1999/xlink" x="0px" y="0px"
	 viewBox="0 0 32 32" style="enable-background:new 0 0 32 32;" xml:space="preserve">
<style type="text/css">
	.st0{fill:#212529;}
	.st1{fill:none;stroke:#212529;stroke-width:0.5;stroke-miterlimit:10;}
</style>
<g>
	<path class="st0" d="M17.1,4c6.2,0,11.2,5,11.2,11.2s-5,11.2-11.2,11.2s-11.2-5-11.2-11.2S10.9,4,17.1,4 M17.1,3
		C10.3,3,4.8,8.5,4.8,15.3s5.5,12.2,12.2,12.2S29.3,22,29.3,15.3S23.8,3,17.1,3L17.1,3z"/>
</g>
<g>
	<path class="st1" d="M7,15.3c0,4,2.3,7.4,5.7,9L7.9,11.2C7.3,12.4,7,13.8,7,15.3z"/>
	<path class="st1" d="M23.8,14.8c0-1.2-0.4-2.1-0.8-2.8c-0.5-0.8-1-1.5-1-2.4c0-0.9,0.7-1.8,1.7-1.8c0,0,0.1,0,0.1,0
		c-1.8-1.6-4.2-2.6-6.8-2.6c-3.5,0-6.6,1.8-8.4,4.5c0.2,0,0.5,0,0.6,0c1.1,0,2.7-0.1,2.7-0.1c0.5,0,0.6,0.8,0.1,0.8
		c0,0-0.5,0.1-1.1,0.1l3.7,10.9l2.2-6.6l-1.6-4.3c-0.5,0-1.1-0.1-1.1-0.1c-0.5,0-0.5-0.9,0.1-0.8c0,0,1.7,0.1,2.6,0.1
		c1,0,2.7-0.1,2.7-0.1c0.5,0,0.6,0.8,0.1,0.8c0,0-0.5,0.1-1.1,0.1l3.6,10.8l1-3.3C23.5,16.6,23.8,15.6,23.8,14.8z"/>
	<path class="st1" d="M17.2,16.1l-3,8.8c0.9,0.3,1.8,0.4,2.8,0.4c1.2,0,2.3-0.2,3.3-0.6c0,0-0.1-0.1-0.1-0.1L17.2,16.1z"/>
	<path class="st1" d="M25.9,10.4c0,0.3,0.1,0.7,0.1,1c0,1-0.2,2.2-0.8,3.6l-3.1,8.9c3-1.7,5-5,5-8.7C27.1,13.5,26.7,11.9,25.9,10.4z
		"/>
</g>
</svg>
