<?xml version="1.0" encoding="utf-8"?>
<!-- Generator: Adobe Illustrator 16.0.3, SVG Export Plug-In . SVG Version: 6.00 Build 0)  -->
<!DOCTYPE svg PUBLIC "-//W3C//DTD SVG 1.1//EN" "http://www.w3.org/Graphics/SVG/1.1/DTD/svg11.dtd">
<svg version="1.1" id="Layer_1" xmlns="http://www.w3.org/2000/svg" xmlns:xlink="http://www.w3.org/1999/xlink" x="0px" y="0px"
	 width="418px" height="418px" viewBox="0 0 418 418" style="enable-background:new 0 0 418 418;" xml:space="preserve">
<style type="text/css">
<![CDATA[
	.st0{opacity:0.5;}
	.st1{fill:#FFFFFF;}
]]>
</style>
<g class="st0">
	
		<image style="overflow:visible;" width="1814" height="1690" xlink:href="F356D8B3.png"  transform="matrix(0.24 0 0 0.24 -7.2192 2.4404)">
	</image>
</g>
<g>
	<path class="st1" d="M139.6,38.4c22.2,2.3,41.4,9.5,57.7,21.6c7.3,6.8,10.9,10.5,10.9,10.9v300.9h-3.7c-31.3-18.3-65-44-101-77
		c-36.9-39.2-59-71-66.3-95.2c-4-9.2-6.8-18.8-8.4-28.9l48.2,6.1c1.6,19.1,18,46,49.3,80.7l32.1,28.9l0.5-4.9V93.8
		c0-2.5-5.7-4.5-17-6.1h-9.5l-17-45.6C119.1,39.7,127.1,38.4,139.6,38.4z"/>
	<path class="st1" d="M283.6,38.4c17.1,0,34.9,4.7,53.6,14.2c18.7,9.5,33.7,25.2,45,47.2v2.3c-6.8,6.2-21.6,13.8-44.4,22.8
		c-14.1-25-30.5-37.5-49.1-37.7c-18.6-0.2-27.9,2-27.9,6.5c0,126.7,0,190.6,0,191.5h1.2c31.3-26.5,52.2-48.2,62.6-65.2
		c6.4-10.7,9.5-17.9,9.5-21.6v-1.2h-24c-1.2,0-2.5-1.2-3.7-3.7v-33.5c0-1.2,0.4-2.6,1.2-4l80.7,0.2c1.2,0,2.5,1.2,3.7,3.7v2.3
		c0,24.7-17.3,60.7-51.9,108.2c-39.3,41-69.5,68.1-90.6,81.3c-21.2,13.3-33.5,19.9-36.9,19.9l-1.2-2.3V72.2
		C230.8,49.7,254.9,38.4,283.6,38.4z"/>
</g>
</svg>
